<?xml version="1.0" encoding="UTF-8" standalone="no"?>
<!-- Created with Inkscape (http://www.inkscape.org/) -->

<svg
   width="1024"
   height="1024"
   viewBox="0 0 270.93333 270.93333"
   version="1.1"
   id="svg1"
   xml:space="preserve"
   sodipodi:docname="design.svg"
   inkscape:version="1.4.2 (ebf0e940d0, 2025-05-08)"
   xmlns:inkscape="http://www.inkscape.org/namespaces/inkscape"
   xmlns:sodipodi="http://sodipodi.sourceforge.net/DTD/sodipodi-0.dtd"
   xmlns="http://www.w3.org/2000/svg"
   xmlns:svg="http://www.w3.org/2000/svg"><sodipodi:namedview
     id="namedview1"
     pagecolor="#ffffff"
     bordercolor="#000000"
     borderopacity="0.25"
     inkscape:showpageshadow="2"
     inkscape:pageopacity="0.0"
     inkscape:pagecheckerboard="0"
     inkscape:deskcolor="#d1d1d1"
     inkscape:document-units="mm"
     showgrid="true"
     inkscape:zoom="0.53703704"
     inkscape:cx="499.03448"
     inkscape:cy="547.44828"
     inkscape:window-width="2560"
     inkscape:window-height="1360"
     inkscape:window-x="0"
     inkscape:window-y="0"
     inkscape:window-maximized="1"
     inkscape:current-layer="layer1"
     inkscape:export-bgcolor="#ffffff00"><inkscape:grid
       id="grid2"
       units="mm"
       originx="540"
       originy="540"
       spacingx="4"
       spacingy="4"
       empcolor="#0099e5"
       empopacity="0.09803922"
       color="#0099e5"
       opacity="0.14901961"
       empspacing="5"
       enabled="true"
       visible="false"
       dotted="false" /></sodipodi:namedview><defs
     id="defs1"><inkscape:path-effect
       effect="fillet_chamfer"
       id="path-effect36"
       is_visible="true"
       lpeversion="1"
       nodesatellites_param="F,0,0,1,0,10.583333,0,1 @ F,0,0,1,0,10.583333,0,1 @ F,0,0,1,0,10.583333,0,1 @ F,0,0,1,0,10.583333,0,1 @ F,0,0,1,0,10.583333,0,1 @ F,0,0,1,0,10.583333,0,1"
       radius="40"
       unit="px"
       method="auto"
       mode="F"
       chamfer_steps="1"
       flexible="false"
       use_knot_distance="true"
       apply_no_radius="true"
       apply_with_radius="true"
       only_selected="false"
       hide_knots="false" /><inkscape:path-effect
       effect="fillet_chamfer"
       id="path-effect32"
       is_visible="true"
       lpeversion="1"
       nodesatellites_param="F,0,0,1,0,10.583333,0,1 @ F,0,0,1,0,10.583333,0,1 @ F,0,0,1,0,10.583333,0,1 @ F,0,0,1,0,10.583333,0,1 @ F,0,0,1,0,10.583333,0,1 @ F,0,0,1,0,10.583333,0,1"
       radius="40"
       unit="px"
       method="auto"
       mode="F"
       chamfer_steps="1"
       flexible="false"
       use_knot_distance="true"
       apply_no_radius="true"
       apply_with_radius="true"
       only_selected="false"
       hide_knots="false" /><inkscape:path-effect
       effect="fillet_chamfer"
       id="path-effect30"
       is_visible="true"
       lpeversion="1"
       nodesatellites_param="F,0,0,1,0,10.583333,0,1 @ F,0,0,1,0,10.583333,0,1 @ F,0,0,1,0,10.583333,0,1 @ F,0,0,1,0,10.583333,0,1 @ F,0,0,1,0,10.583333,0,1 @ F,0,0,1,0,10.583333,0,1"
       radius="40"
       unit="px"
       method="auto"
       mode="F"
       chamfer_steps="1"
       flexible="false"
       use_knot_distance="true"
       apply_no_radius="true"
       apply_with_radius="true"
       only_selected="false"
       hide_knots="false" /><inkscape:path-effect
       effect="fillet_chamfer"
       id="path-effect28"
       is_visible="true"
       lpeversion="1"
       nodesatellites_param="F,0,0,1,0,10.583333,0,1 @ F,0,0,1,0,10.583333,0,1 @ F,0,0,1,0,10.583333,0,1 @ F,0,0,1,0,10.583333,0,1 @ F,0,0,1,0,10.583333,0,1 @ F,0,0,1,0,10.583333,0,1 | F,0,0,1,0,10.583333,0,1 @ F,0,0,1,0,10.583333,0,1 @ F,0,0,1,0,10.583333,0,1 @ F,0,0,1,0,10.583333,0,1 @ F,0,0,1,0,10.583333,0,1 @ F,0,0,1,0,10.583333,0,1"
       radius="40"
       unit="px"
       method="auto"
       mode="F"
       chamfer_steps="1"
       flexible="false"
       use_knot_distance="true"
       apply_no_radius="true"
       apply_with_radius="true"
       only_selected="false"
       hide_knots="false" /><inkscape:path-effect
       effect="fillet_chamfer"
       id="path-effect25"
       is_visible="true"
       lpeversion="1"
       nodesatellites_param="F,0,0,1,0,10.583333,0,1 @ F,0,0,1,0,10.583333,0,1 @ F,0,0,1,0,10.583333,0,1 @ F,0,0,1,0,10.583333,0,1 @ F,0,0,1,0,10.583333,0,1 @ F,0,0,1,0,10.583333,0,1"
       radius="40"
       unit="px"
       method="auto"
       mode="F"
       chamfer_steps="1"
       flexible="false"
       use_knot_distance="true"
       apply_no_radius="true"
       apply_with_radius="true"
       only_selected="false"
       hide_knots="false" /><inkscape:path-effect
       effect="fillet_chamfer"
       id="path-effect24"
       is_visible="true"
       lpeversion="1"
       nodesatellites_param="F,0,0,1,0,10.583333,0,1 @ F,0,0,1,0,10.583333,0,1 @ F,0,0,1,0,10.583333,0,1 @ F,0,0,1,0,10.583333,0,1 @ F,0,0,1,0,10.583333,0,1 @ F,0,0,1,0,10.583333,0,1 | F,0,0,1,0,10.583333,0,1 @ F,0,0,1,0,10.583333,0,1 @ F,0,0,1,0,10.583333,0,1 @ F,0,0,1,0,10.583333,0,1 @ F,0,0,1,0,10.583333,0,1 @ F,0,0,1,0,10.583333,0,1"
       radius="40"
       unit="px"
       method="auto"
       mode="F"
       chamfer_steps="1"
       flexible="false"
       use_knot_distance="true"
       apply_no_radius="true"
       apply_with_radius="true"
       only_selected="false"
       hide_knots="false" /><inkscape:path-effect
       effect="fillet_chamfer"
       id="path-effect23"
       is_visible="true"
       lpeversion="1"
       nodesatellites_param="F,0,0,1,0,10.583333,0,1 @ F,0,0,1,0,10.583333,0,1 @ F,0,0,1,0,10.583333,0,1 @ F,0,0,1,0,10.583333,0,1 @ F,0,0,1,0,10.583333,0,1 @ F,0,0,1,0,10.583333,0,1"
       radius="40"
       unit="px"
       method="auto"
       mode="F"
       chamfer_steps="1"
       flexible="false"
       use_knot_distance="true"
       apply_no_radius="true"
       apply_with_radius="true"
       only_selected="false"
       hide_knots="false" /><inkscape:path-effect
       effect="fillet_chamfer"
       id="path-effect9"
       is_visible="true"
       lpeversion="1"
       nodesatellites_param="F,0,0,1,0,1.8520834,0,1 @ F,0,0,1,0,1.8520834,0,1 @ F,0,0,1,0,1.8520834,0,1 @ F,0,0,1,0,1.8520834,0,1 @ F,0,0,1,0,1.8520834,0,1 @ F,0,0,1,0,1.8520834,0,1 @ F,0,0,1,0,3.6408185,0,1"
       radius="7"
       unit="px"
       method="auto"
       mode="F"
       chamfer_steps="1"
       flexible="false"
       use_knot_distance="true"
       apply_no_radius="true"
       apply_with_radius="true"
       only_selected="false"
       hide_knots="false" /><inkscape:path-effect
       effect="fillet_chamfer"
       id="path-effect1047"
       is_visible="true"
       lpeversion="1"
       nodesatellites_param="F,0,0,1,0,1.8520834,0,1 @ F,0,0,1,0,1.8520834,0,1 @ F,0,0,1,0,1.8520834,0,1 @ F,0,0,1,0,1.8520834,0,1 @ F,0,0,1,0,1.8520834,0,1 @ F,0,0,1,0,1.8520834,0,1 @ F,0,0,1,0,1.8520834,0,1"
       radius="7"
       unit="px"
       method="auto"
       mode="F"
       chamfer_steps="1"
       flexible="false"
       use_knot_distance="true"
       apply_no_radius="true"
       apply_with_radius="true"
       only_selected="false"
       hide_knots="false" /><inkscape:path-effect
       effect="fillet_chamfer"
       id="path-effect1045"
       is_visible="true"
       lpeversion="1"
       nodesatellites_param="F,0,0,1,0,1.0583334,0,1 @ F,0,0,1,0,1.0583334,0,1 @ F,0,0,1,0,1.0583334,0,1"
       radius="5"
       unit="px"
       method="auto"
       mode="F"
       chamfer_steps="1"
       flexible="false"
       use_knot_distance="true"
       apply_no_radius="true"
       apply_with_radius="true"
       only_selected="false"
       hide_knots="false" /><inkscape:path-effect
       effect="fillet_chamfer"
       id="path-effect1044"
       is_visible="true"
       lpeversion="1"
       nodesatellites_param="F,0,0,1,0,1.8520834,0,1 @ F,0,0,1,0,1.8520834,0,1 @ F,0,0,1,0,1.8520834,0,1 @ F,0,0,1,0,1.8520834,0,1 @ F,0,0,1,0,1.8520834,0,1 @ F,0,0,1,0,1.8520834,0,1 @ F,0,0,1,0,3.5629151,0,1"
       radius="7"
       unit="px"
       method="auto"
       mode="F"
       chamfer_steps="1"
       flexible="false"
       use_knot_distance="true"
       apply_no_radius="true"
       apply_with_radius="true"
       only_selected="false"
       hide_knots="false" /></defs><g
     inkscape:label="Layer 1"
     inkscape:groupmode="layer"
     id="layer1"><rect
       fill="#f50277"
       x="0"
       y="0"
       width="100"
       height="220"
       id="rect1-5"
       transform="matrix(0.5715,0,0,0.5715,0,-180.52138)" /><rect
       fill="#0e7af9"
       x="100"
       y="0"
       width="100"
       height="220"
       id="rect2-3"
       transform="matrix(0.5715,0,0,0.5715,0,-180.52138)" /><rect
       fill="#0c090d"
       x="200"
       y="0"
       width="100"
       height="220"
       id="rect3"
       transform="matrix(0.5715,0,0,0.5715,0,-180.52138)" /><path
       id="path15"
       style="fill:#f50376;fill-opacity:1;stroke:none;stroke-width:46.0193;stroke-dasharray:none;stroke-opacity:1"
       d="m 34.995626,361.45189 v 188.80704 a 25.550429,25.550429 67.500002 0 0 7.483546,18.06688 l 195.006668,195.0067 a 25.550509,25.550509 22.500071 0 0 18.06688,7.48358 l 188.80769,4.4e-4 a 10.583278,10.583278 134.99999 0 0 10.5833,-10.5833 l -5.4e-4,-188.80764 a 25.550525,25.550525 67.499915 0 0 -7.48358,-18.06688 L 252.45294,358.35211 a 25.55043,25.55043 22.499997 0 0 -18.06688,-7.48355 l -188.807101,0 a 10.583333,10.583333 135 0 0 -10.583333,10.58333 z m 80.574844,59.40814 83.81996,-2.4e-4 a 25.550326,25.550326 22.499916 0 1 18.06688,7.48352 l 160.01103,160.011 a 25.550543,25.550543 67.499902 0 1 7.48359,18.06688 l 2.7e-4,83.82054 a 10.583267,10.583267 134.99999 0 1 -10.58329,10.5833 l -83.82057,-2.4e-4 a 25.550531,25.550531 22.50008 0 1 -18.06688,-7.48358 l -160.01102,-160.011 a 25.550338,25.550338 67.500067 0 1 -7.48352,-18.06688 l 1.9e-4,-83.81994 a 10.583388,10.583388 134.99999 0 1 10.58336,-10.58336 z"
       sodipodi:nodetypes="cccccccccccccc"
       inkscape:path-effect="#path-effect24"
       inkscape:original-d="m 34.995626,350.86856 v 209.9737 l 209.973764,209.9738 209.97435,5e-4 -6e-4,-209.9743 -209.97375,-209.9737 z m 69.991514,69.9915 104.98662,-3e-4 174.97813,174.9781 3.5e-4,104.9872 -104.98723,-3e-4 -174.97812,-174.9781 z"
       transform="matrix(0.5715,0,0,0.5715,0,209.47866)" /><path
       style="display:inline;fill:#0c090d;fill-opacity:1;stroke:none;stroke-width:27.6115;stroke-dasharray:none;stroke-opacity:1"
       d="m 139.9825,466.43869 v 41.82554 a 25.550421,25.550421 67.499996 0 0 7.48355,18.06688 l 132.01454,132.0145 a 25.550431,25.550431 22.499996 0 0 18.06688,7.48355 l 41.82547,0 a 10.583333,10.583333 135 0 0 10.58333,-10.58333 v -41.82544 a 25.550435,25.550435 67.500007 0 0 -7.48354,-18.06688 L 210.45818,463.33891 a 25.550417,25.550417 22.500007 0 0 -18.06687,-7.48355 h -41.82548 a 10.583333,10.583333 135 0 0 -10.58333,10.58333 z"
       id="path17"
       sodipodi:nodetypes="ccccccc"
       inkscape:path-effect="#path-effect25"
       inkscape:original-d="m 139.9825,455.85536 v 62.9922 l 146.98164,146.9816 h 62.99213 v -62.9921 L 202.97464,455.85536 Z"
       transform="matrix(0.5715,0,0,0.5715,0,209.47866)" /><rect
       style="fill:#ffffff;fill-opacity:1;stroke:none;stroke-width:16.58;stroke-dasharray:none;stroke-opacity:1"
       id="rect23"
       width="84.852814"
       height="282.84271"
       x="431.33514"
       y="148.49245"
       transform="rotate(45)" /><path
       style="fill:#0f79f8;fill-opacity:1;stroke:none;stroke-width:30.9454;stroke-dasharray:none;stroke-opacity:1"
       d="m 444.3598,350.86856 h -34.82635 a 25.550426,25.550426 157.5 0 0 -18.06688,7.48355 L 42.479172,707.33951 a 25.550426,25.550426 112.5 0 0 -7.483546,18.06688 v 34.82634 a 10.583333,10.583333 45 0 0 10.583333,10.58333 h 34.82634 a 25.550425,25.550425 157.5 0 0 18.066879,-7.48355 L 447.45957,414.34511 a 25.550433,25.550433 112.5 0 0 7.48355,-18.06688 l 10e-6,-34.82634 A 10.583331,10.583331 45.000005 0 0 444.3598,350.86856 Z"
       id="path18"
       sodipodi:nodetypes="ccccccc"
       inkscape:path-effect="#path-effect23"
       inkscape:original-d="M 454.94313,350.86856 H 398.95012 L 34.995626,714.82306 v 55.993 H 90.988632 L 454.94312,406.86156 Z"
       transform="matrix(0.5715,0,0,0.5715,0,209.47866)" /><path
       id="path25"
       style="fill:#f50376;fill-opacity:1;stroke:none;stroke-width:29.6779;stroke-dasharray:none;stroke-opacity:1"
       d="M 263.99982,-8.1738735e-5 A 6.825218,6.825218 0 0 1 270.82542,6.8249481 V 128.58739 a 16.477536,16.477536 0 0 1 -4.82661,11.65107 l -29.02679,29.02737 -33.85343,-33.85342 17.74311,-17.74251 a 16.477477,16.477477 0 0 0 4.82603,-11.65107 V 51.962641 a 6.8252534,6.8252534 0 0 0 -6.82562,-6.825028 H 164.80652 A 16.477469,16.477469 0 0 0 153.15544,49.96365 L 135.41235,67.70617 101.55951,33.853334 130.58631,4.8259568 A 16.477537,16.477537 0 0 1 142.23796,-8.1738735e-5 Z M 33.852671,101.559 67.706092,135.41241 49.963577,153.15493 a 16.477609,16.477609 0 0 0 -4.826037,11.65165 v 54.05619 a 6.8251755,6.8251755 0 0 0 6.825032,6.82503 h 54.056178 a 16.477601,16.477601 0 0 0 11.65109,-4.82604 l 17.7431,-17.74251 33.85282,33.85282 -29.02679,29.02681 a 16.477587,16.477587 0 0 1 -11.65165,4.82662 H 6.8248797 A 6.8251826,6.8251826 0 0 1 -1.6356994e-4,264.00046 V 142.23803 A 16.477598,16.477598 0 0 1 4.825885,130.58637 Z"
       inkscape:export-filename="spectrum/spectrum_light.svg"
       inkscape:export-xdpi="96"
       inkscape:export-ydpi="96" /><path
       id="path26"
       style="display:inline;fill:#0c090d;fill-opacity:1;stroke:none;stroke-width:17.8068;stroke-dasharray:none;stroke-opacity:1"
       d="m 196.29357,67.70617 a 6.825218,6.825218 0 0 1 6.82561,6.825028 v 26.973572 a 16.477531,16.477531 0 0 1 -4.82662,11.65165 l -8.71498,8.71498 -40.62363,-40.623633 8.71497,-8.71556 a 16.477528,16.477528 0 0 1 11.65166,-4.826037 z m -115.045879,81.24785 40.623639,40.62362 -8.71498,8.71499 a 16.477537,16.477537 0 0 1 -11.65166,4.82603 H 74.531711 a 6.825218,6.825218 0 0 1 -6.825619,-6.82503 v -26.97357 a 16.47754,16.47754 0 0 1 4.826624,-11.65107 z" /><path
       style="fill:#0f79f8;fill-opacity:1;stroke:none;stroke-width:30.9454;stroke-dasharray:none;stroke-opacity:1"
       d="m 444.3598,350.86856 h -34.82635 a 25.550426,25.550426 157.5 0 0 -18.06688,7.48355 L 42.479172,707.33951 a 25.550426,25.550426 112.5 0 0 -7.483546,18.06688 v 34.82634 a 10.583333,10.583333 45 0 0 10.583333,10.58333 h 34.82634 a 25.550425,25.550425 157.5 0 0 18.066879,-7.48355 L 447.45957,414.34511 a 25.550433,25.550433 112.5 0 0 7.48355,-18.06688 l 10e-6,-34.82634 A 10.583331,10.583331 45.000005 0 0 444.3598,350.86856 Z"
       id="path27"
       sodipodi:nodetypes="ccccccc"
       inkscape:path-effect="#path-effect32"
       inkscape:original-d="M 454.94313,350.86856 H 398.95012 L 34.995626,714.82306 v 55.993 H 90.988632 L 454.94312,406.86156 Z"
       transform="matrix(-0.64490251,0,0,0.64490251,293.39399,-226.276)" /><path
       id="path33"
       style="fill:#f50376;fill-opacity:1;stroke:none;stroke-width:29.6779;stroke-dasharray:none;stroke-opacity:1"
       d="m 580.88119,0 a 6.8252139,6.8252139 0 0 1 6.8256,6.8250256 V 128.58739 a 16.477526,16.477526 0 0 1 -4.82661,11.65106 l -29.02678,29.02736 -33.85339,-33.85341 17.74308,-17.74249 a 16.477467,16.477467 0 0 0 4.82604,-11.65106 V 51.962692 a 6.8252493,6.8252493 0 0 0 -6.82562,-6.825024 h -54.05556 a 16.477459,16.477459 0 0 0 -11.65107,4.826034 L 452.2938,67.706211 418.44098,33.853396 447.46777,4.8260356 A 16.477527,16.477527 0 0 1 459.1194,0 Z m -230.14701,101.55902 33.8534,33.85338 -17.7425,17.74252 a 16.477599,16.477599 0 0 0 -4.82604,11.65164 v 54.05616 a 6.8251713,6.8251713 0 0 0 6.82503,6.82503 h 54.05615 a 16.477591,16.477591 0 0 0 11.65107,-4.82604 l 17.7431,-17.74251 33.8528,33.85281 -29.02677,29.02679 a 16.477578,16.477578 0 0 1 -11.65165,4.82662 H 323.70641 a 6.8251784,6.8251784 0 0 1 -6.82504,-6.82504 V 142.23802 a 16.477587,16.477587 0 0 1 4.82604,-11.65165 z"
       inkscape:export-filename="spectrum/spectrum_dark.svg"
       inkscape:export-xdpi="96"
       inkscape:export-ydpi="96" /><path
       id="path34"
       style="display:inline;fill:#ffffff;fill-opacity:1;stroke:none;stroke-width:17.8068;stroke-dasharray:none;stroke-opacity:1"
       d="m 513.17498,67.706211 a 6.8252139,6.8252139 0 0 1 6.8256,6.825025 v 26.973554 a 16.477521,16.477521 0 0 1 -4.82662,11.65164 l -8.71496,8.71497 -40.62361,-40.6236 8.71497,-8.715555 a 16.477518,16.477518 0 0 1 11.65165,-4.826034 z m -115.04581,81.247799 40.62361,40.6236 -8.71497,8.71497 a 16.477527,16.477527 0 0 1 -11.65165,4.82604 H 391.4132 a 6.8252139,6.8252139 0 0 1 -6.82562,-6.82502 v -26.97356 a 16.47753,16.47753 0 0 1 4.82662,-11.65106 z" /><path
       style="fill:#0f79f8;fill-opacity:1;stroke:none;stroke-width:30.9454;stroke-dasharray:none;stroke-opacity:1"
       d="m 444.3598,350.86856 h -34.82635 a 25.550426,25.550426 157.5 0 0 -18.06688,7.48355 L 42.479172,707.33951 a 25.550426,25.550426 112.5 0 0 -7.483546,18.06688 v 34.82634 a 10.583333,10.583333 45 0 0 10.583333,10.58333 h 34.82634 a 25.550425,25.550425 157.5 0 0 18.066879,-7.48355 L 447.45957,414.34511 a 25.550433,25.550433 112.5 0 0 7.48355,-18.06688 l 10e-6,-34.82634 A 10.583331,10.583331 45.000005 0 0 444.3598,350.86856 Z"
       id="path35"
       sodipodi:nodetypes="ccccccc"
       inkscape:path-effect="#path-effect36"
       inkscape:original-d="M 454.94313,350.86856 H 398.95012 L 34.995626,714.82306 v 55.993 H 90.988632 L 454.94312,406.86156 Z"
       transform="matrix(-0.64490212,0,0,0.64490212,610.27534,-226.27578)" /></g></svg>
